<svg width="220" height="40" viewBox="0 0 220 40" fill="none" xmlns="http://www.w3.org/2000/svg">
<g clip-path="url(#clip0_6_7765)">
<path d="M16.3316 4.18603C18.7328 4.18603 21.1339 4.23685 23.5351 4.16697C24.7547 4.12886 25.5297 4.65609 26.1141 5.61528C28.6613 9.8014 31.1768 14.0002 33.7685 18.1609C34.607 19.5013 34.6261 20.5938 33.7304 21.9913C31.0371 26.2029 28.5025 30.5097 25.9172 34.7911C25.3963 35.655 24.6658 36.0361 23.6875 36.0361C19.0313 36.0361 14.3752 36.1759 9.72532 35.998C4.1163 35.7884 -0.196861 31.3736 0.00641035 25.9107C0.152512 21.9151 0.0318193 17.9068 0.0381715 13.9049C0.0445237 8.47378 4.17347 4.27496 9.57922 4.20508C11.8279 4.17332 14.083 4.20508 16.3316 4.20508V4.18603Z" fill="#FEFEFE"/>
<path d="M73.3874 20.0984C73.3874 22.0485 73.3874 23.9987 73.3874 25.9552C73.3874 31.5705 69.2902 35.8837 63.6494 36.0171C59.0504 36.1251 54.445 36.0298 49.8396 36.0489C48.7343 36.0489 47.9784 35.6042 47.4004 34.6387C44.8087 30.3064 42.217 25.9742 39.5236 21.7055C38.7995 20.5621 38.7868 19.641 39.4664 18.5358C42.1344 14.1908 44.7579 9.82049 47.4194 5.46921C47.9467 4.61166 48.6899 4.167 49.7825 4.17971C54.5339 4.22417 59.2918 4.167 64.0432 4.21782C69.1631 4.27499 73.3619 8.55004 73.3937 13.6509C73.4064 15.8043 73.3937 17.9513 73.3937 20.1048L73.3874 20.0984Z" fill="#FEFEFE"/>
<path d="M36.716 0.00635592C39.2696 0.00635592 41.8232 -0.00634854 44.3704 0.00635592C46.13 0.0190604 46.4666 0.559 45.5456 2.10894C42.9412 6.49198 40.2986 10.856 37.6434 15.2072C37.0336 16.2109 36.3666 16.2109 35.7187 15.1628C32.9427 10.6527 30.1922 6.1172 27.4735 1.57536C26.9081 0.635227 27.3401 0.0317648 28.6105 0.0127082C31.3102 -0.0317575 34.0163 3.69083e-06 36.716 3.69083e-06V0.00635592Z" fill="#FEFEFE"/>
<path d="M36.5317 39.9873C33.9337 39.9873 31.3356 40 28.7375 39.9873C27.1685 39.9746 26.8954 39.5617 27.7085 38.1896C30.3764 33.6795 33.0825 29.1885 35.8139 24.7165C36.5889 23.4524 37.2686 24.2909 37.726 25.0087C39.0091 27.0287 40.2097 29.1059 41.4484 31.1577C42.7887 33.381 44.1354 35.5979 45.482 37.8212C45.7933 38.3357 46.2125 38.8502 45.9267 39.4791C45.6091 40.1715 44.9103 39.9873 44.3323 39.9936C41.7342 40.0063 39.1362 39.9936 36.5381 39.9936L36.5317 39.9873Z" fill="#FEFEFE"/>
<path d="M123.506 6.73332C124.656 6.8286 125.457 7.50829 126.219 8.25785C128.321 10.3477 130.5 12.3677 132.482 14.5656C133.924 16.16 134.953 16.0012 136.332 14.5021C138.402 12.2407 140.607 10.0936 142.849 8.00376C144.018 6.91118 145.46 5.79954 146.965 7.44477C148.394 9.01377 147.81 10.5383 146.438 11.8977C144.259 14.0574 142.163 16.3125 139.901 18.377C138.51 19.6474 138.288 20.5367 139.819 21.9088C142.106 23.9479 144.177 26.2283 146.362 28.3817C147.721 29.7157 148.439 31.2402 147.016 32.8219C145.396 34.6133 143.922 33.3365 142.671 32.1549C140.594 30.1921 138.479 28.2483 136.63 26.0822C134.921 24.0813 133.702 24.3608 132.095 26.1711C130.208 28.3055 128.124 30.281 126.041 32.2375C124.878 33.3238 123.5 34.5116 121.912 32.9807C120.279 31.4117 121.15 29.811 122.35 28.5088C124.358 26.3363 126.39 24.1511 128.633 22.2264C130.538 20.5939 130.265 19.5331 128.544 17.9958C126.257 15.9631 124.161 13.7017 122.064 11.4594C121.258 10.5955 120.762 9.47748 121.258 8.24515C121.652 7.26055 122.541 6.90483 123.506 6.72061V6.73332Z" fill="#FEFEFE"/>
<path d="M183.008 13.4984C182.957 9.19794 180.784 6.7841 176.408 6.59353C171.758 6.39026 167.089 6.40296 162.439 6.59353C158.437 6.75233 156.373 9.15983 156.316 13.2126C156.284 15.5375 156.316 17.8687 156.316 20.1937C156.316 22.4169 156.297 24.6402 156.316 26.8635C156.354 31.4435 158.488 33.6731 163.093 33.762C167.432 33.8446 171.771 33.8319 176.109 33.762C180.537 33.6921 182.944 31.2592 183.001 26.8317C183.059 22.3852 183.052 17.945 183.001 13.4984H183.008ZM177.964 20.2381C177.964 28.6929 177.964 28.7438 169.395 28.6802C160.089 28.6104 161.493 29.9507 161.359 20.6383C161.334 18.6374 161.391 16.6237 161.226 14.6355C161.042 12.3804 162.083 11.58 164.18 11.6054C167.769 11.6436 171.358 11.6753 174.94 11.5927C177.062 11.5419 178.085 12.3296 177.977 14.5465C177.881 16.4395 177.958 18.3452 177.958 20.2445L177.964 20.2381Z" fill="#FEFEFE"/>
<path d="M112.46 13.4984C112.409 9.19794 110.237 6.7841 105.86 6.59353C101.21 6.39026 96.5412 6.40296 91.8913 6.59353C87.8894 6.75233 85.8249 9.15983 85.7678 13.2126C85.736 15.5375 85.7678 17.8687 85.7678 20.1937C85.7678 22.4169 85.7487 24.6402 85.7678 26.8635C85.8059 31.4435 87.9402 33.6731 92.5456 33.762C96.8842 33.8446 101.223 33.8319 105.561 33.762C109.989 33.6921 112.396 31.2592 112.453 26.8317C112.511 22.3852 112.504 17.945 112.453 13.4984H112.46ZM107.416 20.2381C107.416 28.6929 107.416 28.7438 98.847 28.6802C89.541 28.6104 90.9448 29.9507 90.8115 20.6383C90.786 18.6374 90.8432 16.6237 90.6781 14.6355C90.4938 12.3804 91.5356 11.58 93.6318 11.6054C97.2208 11.6436 100.81 11.6753 104.393 11.5927C106.514 11.5419 107.537 12.3296 107.429 14.5465C107.334 16.4395 107.41 18.3452 107.41 20.2445L107.416 20.2381Z" fill="#FEFEFE"/>
<path d="M203.754 8.57533L190.408 31.6911C189.875 32.6122 190.542 33.7683 191.609 33.7683H218.301C219.368 33.7683 220.029 32.6185 219.501 31.6911L206.155 8.57533C205.622 7.65425 204.294 7.65425 203.761 8.57533H203.754ZM206.149 17.2017L212.018 27.3716C212.552 28.2927 211.885 29.4488 210.818 29.4488H199.079C198.012 29.4488 197.351 28.299 197.878 27.3716L203.748 17.2017C204.281 16.2806 205.609 16.2806 206.143 17.2017H206.149Z" fill="#FEFEFE"/>
</g>
<defs>
<clipPath id="clip0_6_7765">
<rect width="219.679" height="40" fill="white"/>
</clipPath>
</defs>
</svg>
